<?xml version="1.0" encoding="UTF-8" standalone="no"?>
<svg
   xmlns:dc="http://purl.org/dc/elements/1.1/"
   xmlns:cc="http://creativecommons.org/ns#"
   xmlns:rdf="http://www.w3.org/1999/02/22-rdf-syntax-ns#"
   xmlns:svg="http://www.w3.org/2000/svg"
   xmlns="http://www.w3.org/2000/svg"
   xmlns:sodipodi="http://sodipodi.sourceforge.net/DTD/sodipodi-0.dtd"
   xmlns:inkscape="http://www.inkscape.org/namespaces/inkscape"
   viewBox="0 0 841.9 595.3"
   version="1.1"
   id="svg72"
   sodipodi:docname="logo.svg"
   inkscape:version="0.92.5 (2060ec1f9f, 2020-04-08)">
  <metadata
     id="metadata78">
    <rdf:RDF>
      <cc:Work
         rdf:about="">
        <dc:format>image/svg+xml</dc:format>
        <dc:type
           rdf:resource="http://purl.org/dc/dcmitype/StillImage" />
      </cc:Work>
    </rdf:RDF>
  </metadata>
  <defs
     id="defs76" />
  <sodipodi:namedview
     pagecolor="#ffffff"
     bordercolor="#666666"
     borderopacity="1"
     objecttolerance="10"
     gridtolerance="10"
     guidetolerance="10"
     inkscape:pageopacity="0"
     inkscape:pageshadow="2"
     inkscape:window-width="3840"
     inkscape:window-height="2068"
     id="namedview74"
     showgrid="false"
     inkscape:zoom="2.1202514"
     inkscape:cx="461.27439"
     inkscape:cy="271.77518"
     inkscape:window-x="1600"
     inkscape:window-y="146"
     inkscape:window-maximized="1"
     inkscape:current-layer="svg72" />
  <path
     inkscape:connector-curvature="0"
     id="path364"
     d="m 469.59999,497.25307 c -20.53569,-73.06901 -40.98865,-145.61822 -41.5375,-147.33899 -0.35621,-1.11679 -1.02577,-2.17561 -1.48792,-2.35295 -0.8334,-0.31982 -7.64601,0.7528 -21.90603,3.44899 -5.35999,1.01344 -7.57387,1.70749 -8.00277,2.50889 -0.32611,0.60933 -1.06511,24.63682 -1.64225,53.3944 -0.57713,28.75756 -1.16094,52.64777 -1.29735,53.08931 -0.17445,0.56468 -1.96852,0.80281 -6.0484,0.80281 -5.10005,0 -5.80038,-0.13598 -5.80038,-1.12599 0,-0.6193 -1.74208,-21.50037 -3.87128,-46.40238 -2.12922,-24.90201 -4.05018,-47.37152 -4.26882,-49.93223 -0.23866,-2.79521 -0.75973,-4.95643 -1.30387,-5.40802 -0.70262,-0.58313 -3.53261,-0.27881 -12.59019,1.35387 -6.4261,1.15833 -12.30686,2.24365 -13.06835,2.41179 -0.95569,0.21102 -1.49503,-0.0592 -1.74142,-0.87266 -0.81129,-2.67837 -3.58532,-26.19135 -3.13884,-26.60513 0.2665,-0.247 6.55379,-1.07272 13.97175,-1.83494 7.79278,-0.80072 13.81323,-1.71054 14.25943,-2.15487 0.6014,-0.59893 0.42577,-4.88913 -0.79391,-19.39422 -0.86138,-10.24385 -1.57015,-19.52297 -1.57505,-20.62029 l -0.008,-1.9951 13.96957,-4.26682 c 7.68327,-2.34672 14.34903,-4.26679 14.8128,-4.26679 0.68468,0 0.80533,4.49874 0.64156,23.92371 l -0.20167,23.92372 2.89011,0.21128 c 2.82154,0.20625 16.23062,-0.92444 19.10686,-1.61114 1.01544,-0.24243 1.44506,-0.81664 1.44506,-1.93138 0,-0.8725 -2.90182,-12.01606 -6.4485,-24.76349 -4.69951,-16.89097 -6.24104,-23.3053 -5.68364,-23.64979 0.71552,-0.44221 15.83328,-5.13831 24.80813,-7.70627 2.20309,-0.63037 4.11649,-0.95084 4.25195,-0.71217 0.13547,0.23867 2.80234,12.66768 5.92637,27.62002 4.06365,19.44936 5.96079,27.33584 6.66626,27.71234 0.5424,0.28944 5.17678,0.12594 10.29871,-0.36324 37.04396,-3.53831 57.53215,-5.40324 59.36105,-5.40324 2.39856,0 2.54123,0.33935 3.31393,7.8819 l 0.41663,4.06594 -3.76852,0.71852 c -2.07275,0.39516 -17.06321,3.19367 -33.31207,6.21889 -16.24886,3.02521 -30.19366,5.65484 -30.98844,5.84363 -1.02024,0.24234 -1.44506,0.81382 -1.44506,1.94406 0,0.88045 7.94781,39.86457 17.66181,86.63139 9.71399,46.76682 17.6618,85.49099 17.6618,86.05373 0,0.87297 -1.01957,1.02315 -6.94597,1.02315 h -6.94614 z M 341.8461,286.91703 c -0.60991,-1.02104 -23.55121,-76.19799 -23.55121,-77.17565 0,-0.78331 3.30373,-2.06808 13.64776,-5.30739 12.84828,-4.02356 101.22519,-31.29486 112.71893,-34.78275 4.86785,-1.47722 5.34936,-1.5212 5.86801,-0.53597 1.32915,2.52473 24.16507,77.06006 23.73991,77.4853 -0.55762,0.55746 -130.38874,40.79815 -131.62985,40.79815 -0.27819,0 -0.63528,-0.21676 -0.79355,-0.48169 z m 225.47,-70.00497 c -0.17645,-0.61816 -5.57701,-18.13133 -12.00133,-38.91816 -6.42448,-20.78682 -11.54573,-38.14617 -11.38065,-38.57631 0.28733,-0.74867 10.77453,-4.23152 12.74158,-4.23152 0.6931,0 4.10487,10.27987 12.70647,38.28639 6.46746,21.05753 11.7936,38.72656 11.83592,39.26452 0.0535,0.68751 -1.82372,1.61999 -6.32079,3.13857 -3.51881,1.18824 -6.5919,2.16044 -6.82923,2.16044 -0.23716,0 -0.57568,-0.50577 -0.75197,-1.12393 z m -93.87249,-3.4293 c -0.61064,-1.76135 -5.5051,-18.02521 -5.5051,-18.29265 0,-0.14919 15.38467,-10.52891 34.18814,-23.06591 29.92723,-19.95368 34.245,-22.64088 34.64423,-21.56161 1.83559,4.96229 19.24,62.46513 18.98377,62.72132 -0.1788,0.17869 -18.70111,0.50037 -41.16104,0.7148 -34.81935,0.33247 -40.8824,0.25645 -41.15,-0.51595 z M 329.85534,196.12172 c -8.50223,-1.20229 -15.01827,-4.66163 -21.1723,-11.24033 -13.26464,-14.17992 -12.99141,-36.06867 0.62039,-49.70189 8.75436,-8.76815 21.16504,-12.62212 32.88357,-10.21154 6.02864,1.24016 13.68917,5.38625 18.07573,9.78315 14.04897,14.08202 14.34604,36.01435 0.684,50.49683 -7.94303,8.42005 -19.60379,12.49822 -31.09139,10.87378 z m 0.80281,-12.12287 c 4.08841,-4.51155 0.5461,-12.20468 -5.61966,-12.20468 -6.09023,0 -9.6304,7.5099 -5.72698,12.14887 3.08691,3.66859 8.05059,3.69299 11.34664,0.0559 z m 23.24963,-3.20607 c 1.65036,-1.65036 1.95859,-2.45385 1.95859,-5.10573 0,-2.43698 -0.3474,-3.51693 -1.53951,-4.78587 -3.33333,-3.54818 -8.79941,-3.51866 -11.61652,0.0627 -1.61664,2.05521 -1.75062,6.95803 -0.24877,9.10222 2.58492,3.6905 8.13032,4.04253 11.44621,0.72666 z m -32.65855,-17.60472 c 1.81824,-1.81825 2.18364,-2.65409 2.18364,-4.99508 0,-3.21025 -1.18779,-5.25111 -3.86058,-6.63326 -5.27094,-2.72572 -10.91111,0.94479 -10.91111,7.10071 0,1.80938 0.49804,2.84203 2.18364,4.52763 1.86389,1.86389 2.62565,2.18364 5.2022,2.18364 2.57655,0 3.33832,-0.31975 5.20221,-2.18364 z m 33.03254,-3.92858 c 2.31114,-1.19515 3.83246,-3.98628 3.83246,-7.03139 0,-1.69881 -0.55183,-2.89135 -2.13974,-4.62405 -1.85693,-2.02627 -2.54246,-2.34332 -5.18698,-2.39899 -2.73557,-0.0575 -3.27213,0.18121 -5.24611,2.33485 -1.64368,1.79328 -2.19886,2.97698 -2.19886,4.68819 0,6.13032 5.65397,9.7645 10.93923,7.03139 z M 336.7595,145.1726 c 3.47692,-3.76573 2.50492,-9.36996 -1.99551,-11.50555 -2.77194,-1.31537 -3.83412,-1.31537 -6.60605,0 -5.38687,2.55625 -5.44859,10.60687 -0.10203,13.32105 3.10152,1.57451 6.16335,0.93584 8.70368,-1.8155 z m 83.97386,19.9223 c -9.88068,-1.95285 -17.32314,-5.87389 -24.44001,-12.87613 -5.92017,-5.82478 -9.60049,-11.60158 -12.28342,-19.28057 -1.66101,-4.7541 -1.79404,-5.85773 -1.78061,-14.77169 0.0134,-8.73264 0.17607,-10.11427 1.74161,-14.77169 2.53398,-7.538504 5.87091,-12.800464 12.02588,-18.963494 8.57595,-8.58719 18.72991,-13.16603 30.85105,-13.91202 19.33519,-1.18998 37.4745,9.5828 45.62301,27.09528 3.27095,7.029544 4.60278,12.886234 4.60077,20.230804 -0.002,7.94554 -1.4847,14.29317 -5.09516,21.81597 -2.4949,5.19836 -3.76869,6.93074 -8.77672,11.93631 -4.94296,4.94043 -6.81167,6.32292 -11.95968,8.84756 -3.35574,1.64569 -7.83539,3.44495 -9.9548,3.99837 -5.43485,1.41912 -15.11488,1.72589 -20.55192,0.6513 z m 0.31403,-18.66584 c 2.57628,-1.33223 3.86058,-3.40068 3.86058,-6.21769 0,-4.95638 -2.66247,-7.59429 -7.66494,-7.59429 -7.25894,0 -9.64059,9.77693 -3.33496,13.69034 2.12024,1.31586 4.74352,1.36056 7.13932,0.12159 z m 28.92927,-5.15251 c 2.32463,-1.20216 3.83241,-3.98998 3.83241,-7.08618 0,-1.80938 -0.49808,-2.84203 -2.18364,-4.52763 -1.86386,-1.86389 -2.62569,-2.18364 -5.20221,-2.18364 -2.57651,0 -3.33828,0.31975 -5.20217,2.18364 -1.72868,1.72868 -2.18314,2.69881 -2.18123,4.6563 0.005,6.13068 5.6242,9.70477 10.93684,6.95751 z m -39.84748,-20.53739 c 2.67279,-1.38215 3.86058,-3.42301 3.86058,-6.63326 0,-2.34099 -0.36539,-3.17683 -2.18364,-4.99508 -1.84824,-1.84823 -2.63587,-2.18364 -5.12785,-2.18364 -7.36037,0 -10.31267,9.69933 -4.10441,13.48451 2.50641,1.52814 5.02258,1.63721 7.55532,0.32747 z m 42.84212,-6.71894 c 2.34454,-1.42955 3.83961,-5.28085 3.13698,-8.08053 -0.24101,-0.96034 -1.26827,-2.5761 -2.28265,-3.59053 -1.44171,-1.44173 -2.42967,-1.84445 -4.52434,-1.84445 -4.99442,0 -7.69489,2.73784 -7.69489,7.80141 0,2.10393 0.41865,3.02164 2.18364,4.78664 2.59438,2.59434 5.89995,2.92826 9.18126,0.92746 z M 428.77911,99.410236 c 3.48973,-2.4052 4.52842,-5.92222 2.81524,-9.53247 -2.64193,-5.56745 -10.7492,-5.52875 -13.40314,0.0641 -2.36795,4.99009 1.1757,10.562934 6.71676,10.562934 1.25574,0 2.99777,-0.49251 3.87114,-1.094474 z"
     style="fill:#aa0005;stroke-width:0.64224744;fill-opacity:1" />
</svg>
